<?xml version="1.0" standalone="no"?>
<!DOCTYPE svg PUBLIC "-//W3C//DTD SVG 20010904//EN"
 "http://www.w3.org/TR/2001/REC-SVG-20010904/DTD/svg10.dtd">
<svg version="1.0" xmlns="http://www.w3.org/2000/svg"
 width="907.000000pt" height="907.000000pt" viewBox="0 0 907.000000 907.000000"
 preserveAspectRatio="xMidYMid meet">
<metadata>
Created by potrace 1.14, written by Peter Selinger 2001-2017
</metadata>
<g transform="translate(0.000000,907.000000) scale(0.100000,-0.100000)"
fill="#000000" stroke="none">
<path d="M10 6991 c0 -5 9 -14 310 -291 259 -239 403 -372 410 -380 3 -3 54
-50 114 -105 60 -55 121 -111 136 -125 14 -14 75 -70 135 -125 59 -55 118
-109 130 -120 11 -11 46 -42 76 -70 30 -27 106 -98 169 -156 63 -59 142 -131
175 -162 33 -30 76 -70 96 -88 19 -19 77 -72 128 -118 50 -46 109 -100 130
-120 21 -20 85 -79 141 -131 57 -52 113 -104 125 -115 11 -11 74 -69 140 -130
66 -60 122 -112 125 -115 8 -8 127 -118 249 -230 63 -58 147 -135 185 -171 39
-37 85 -79 101 -93 17 -15 55 -51 85 -79 68 -64 247 -229 303 -279 22 -21 41
-37 42 -35 213 292 446 612 469 643 17 23 39 53 48 65 9 13 119 164 243 334
125 171 272 373 328 450 82 112 338 461 403 550 371 507 874 1196 874 1199 0
1 -1321 2 -2935 2 -1614 0 -2935 -2 -2935 -5z"/>
<path d="M5838 6466 c-218 -292 -602 -805 -853 -1141 -250 -335 -461 -617
-468 -625 -7 -8 -30 -40 -52 -70 -22 -30 -45 -62 -52 -70 -7 -8 -141 -188
-299 -400 -158 -212 -291 -390 -296 -397 -7 -8 80 -11 354 -10 l362 2 57 75
c31 41 154 205 272 365 l215 290 591 0 c387 0 591 -3 592 -10 0 -5 1 -170 2
-365 l2 -355 353 -2 352 -2 -2 1622 -3 1622 -365 1 -366 0 -396 -530z m452
-849 l0 -553 -405 0 c-223 0 -404 3 -403 7 4 9 802 1099 806 1099 1 0 2 -249
2 -553z"/>
<path d="M8695 6972 c-59 -21 -117 -69 -141 -121 -22 -44 -24 -53 -25 -116 -1
-87 53 -175 135 -217 64 -34 167 -31 228 5 117 68 161 207 102 325 -55 111
-184 165 -299 124z m183 -69 c122 -76 122 -248 0 -329 -41 -28 -54 -32 -106
-30 -131 5 -216 115 -189 244 6 32 21 56 52 87 71 70 159 80 243 28z"/>
<path d="M8725 6876 c-36 -15 -85 -70 -86 -94 0 -9 -2 -27 -5 -40 -2 -12 5
-42 17 -67 39 -82 145 -108 219 -53 28 20 29 23 13 40 -9 10 -19 14 -22 9 -13
-20 -64 -39 -94 -35 -46 5 -79 44 -84 97 -4 41 -2 48 31 80 31 32 41 36 73 31
20 -2 46 -13 58 -23 17 -17 23 -18 38 -6 16 12 17 14 2 29 -40 39 -112 54
-160 32z"/>
<path d="M7201 6090 c-4 -3 -8 -530 -7 -1171 l0 -1167 133 0 c118 -1 133 1
134 16 0 9 1 241 1 515 l1 497 532 0 532 0 29 -22 c33 -26 35 -28 70 -87 23
-40 51 -110 59 -150 2 -9 9 -38 15 -66 17 -73 24 -154 34 -380 7 -138 19 -206
52 -272 l25 -52 127 0 c91 0 122 3 109 10 -54 32 -101 227 -113 479 -5 101
-12 213 -18 255 -13 111 -75 248 -142 317 -45 47 -132 98 -165 98 -10 0 -20 4
-24 9 -3 6 2 8 12 7 22 -4 122 27 166 51 43 24 128 109 154 154 21 37 58 137
68 185 4 16 8 85 10 154 3 139 -11 216 -59 314 -62 126 -218 239 -391 282 -16
4 -32 8 -35 9 -3 1 -32 5 -65 10 -64 9 -1232 14 -1244 5z m1311 -268 c157 -63
241 -193 242 -377 0 -171 -98 -364 -217 -427 -42 -23 -44 -23 -557 -23 l-515
0 -1 426 -1 426 496 -2 c487 -1 497 -2 553 -23z"/>
<path d="M948 3342 l-47 -3 -129 -172 c-70 -95 -205 -275 -299 -402 -94 -126
-239 -320 -321 -430 l-149 -200 31 -5 c17 -3 83 -4 148 -2 l116 3 97 125 c53
68 104 124 113 125 21 1 337 1 372 0 l25 -1 -2 -124 -1 -125 36 -3 c21 -2 87
-2 149 0 l112 3 0 605 0 604 -22 1 c-95 3 -190 4 -229 1z m-32 -544 l-1 -173
-117 -1 c-83 -1 -115 2 -111 10 12 21 226 336 228 336 1 0 2 -78 1 -172z"/>
<path d="M3050 3260 c-5 -3 -9 -48 -9 -100 0 -52 0 -101 0 -107 -1 -9 -18 -13
-51 -13 l-51 0 3 -87 3 -88 48 1 c44 1 47 0 47 -25 1 -14 1 -150 2 -301 0
-291 4 -318 50 -367 39 -41 94 -48 341 -44 l37 1 0 80 c0 57 -4 80 -12 81 -7
1 -33 2 -58 3 -89 5 -91 5 -103 35 -8 20 -12 103 -11 277 1 137 2 254 3 259 1
6 38 10 91 9 l90 -1 0 83 0 84 -91 0 -91 0 2 28 c1 15 2 65 1 112 l-1 85 -116
0 c-63 0 -119 -2 -124 -5z"/>
<path d="M3530 3168 c0 -54 3 -98 8 -99 10 0 181 0 212 0 25 1 25 2 24 89 -1
48 -2 92 -3 97 0 6 -49 10 -121 10 l-120 0 0 -97z"/>
<path d="M2365 3013 c-119 -38 -197 -129 -211 -246 -5 -46 -2 -63 18 -108 56
-119 130 -161 305 -174 135 -9 203 -52 203 -127 0 -31 -7 -46 -30 -70 -29 -29
-34 -30 -98 -26 -88 6 -160 41 -184 88 -10 19 -24 37 -32 40 -8 3 -53 4 -100
2 l-86 -3 0 -42 c0 -123 112 -231 260 -252 283 -41 502 58 526 239 13 93 -64
210 -169 256 -28 13 -86 25 -135 30 -103 10 -176 31 -223 63 -30 20 -34 28
-33 65 0 22 7 48 14 57 70 84 280 47 280 -50 0 -19 6 -20 115 -20 112 0 115 0
115 22 0 39 -31 116 -64 160 -81 109 -293 152 -471 96z"/>
<path d="M6593 3005 c-55 -13 -122 -51 -160 -92 -114 -121 -151 -382 -82 -585
56 -167 180 -257 349 -252 178 5 294 107 324 284 6 35 6 35 -29 34 -42 -1 -44
-3 -51 -40 -10 -57 -47 -120 -89 -152 -118 -91 -302 -61 -386 63 -72 106 -92
309 -47 470 28 96 119 190 195 201 37 5 124 5 143 1 80 -19 139 -72 169 -151
17 -47 21 -51 52 -51 33 0 34 1 32 38 -6 84 -73 171 -164 211 -71 33 -174 41
-256 21z"/>
<path d="M8583 3009 c-119 -23 -216 -118 -260 -254 -19 -58 -24 -89 -27 -189
-10 -282 127 -480 339 -490 98 -5 190 37 263 119 l42 48 -1 -34 c-4 -99 -1
-109 30 -109 16 0 31 6 33 13 2 6 4 109 4 227 l-1 215 -164 3 c-110 2 -167 -1
-171 -8 -4 -6 -6 -23 -5 -38 l1 -27 130 0 129 0 1 -35 c2 -113 -60 -225 -151
-273 -51 -27 -163 -32 -214 -11 -85 36 -154 139 -176 264 -33 182 13 374 107
454 132 114 358 52 409 -110 12 -38 15 -41 52 -40 39 0 39 1 33 34 -27 171
-209 280 -403 241z"/>
<path d="M3530 2570 l0 -438 43 -3 c23 -2 78 -2 122 1 l80 5 0 435 0 435 -122
2 -123 1 0 -438z"/>
<path d="M3843 2570 l0 -438 31 -4 c17 -1 66 -1 110 2 l79 5 1 287 1 287 35
36 c51 53 104 78 170 78 64 0 124 -25 154 -65 19 -27 20 -43 21 -330 l0 -301
99 1 c54 1 101 4 105 6 4 3 6 159 5 348 -1 377 1 366 -66 436 -53 57 -127 85
-228 87 -49 1 -106 -5 -135 -13 -58 -17 -121 -58 -131 -87 -5 -13 -9 0 -11 41
l-4 61 -118 1 -118 0 0 -438z"/>
<path d="M4767 2991 c-1 -3 -2 -204 -2 -446 l1 -440 37 -3 c25 -2 37 1 38 10
1 7 2 96 3 198 l1 185 130 3 c161 4 207 -3 244 -34 34 -29 43 -67 55 -244 8
-113 11 -120 62 -120 47 0 49 2 34 31 -12 21 -17 58 -24 164 -9 129 -17 162
-48 199 -16 20 -36 36 -45 36 -8 0 5 15 29 33 59 44 90 109 90 190 1 112 -60
201 -154 228 -44 13 -447 21 -451 10z m430 -86 c65 -27 96 -81 95 -161 -2 -71
-28 -115 -87 -144 -46 -23 -60 -24 -205 -25 l-155 0 -1 173 0 172 158 0 c120
0 168 -4 195 -15z"/>
<path d="M5765 2951 c-9 -25 -32 -86 -50 -136 -18 -49 -48 -130 -65 -180 -17
-49 -50 -139 -72 -200 -22 -60 -44 -123 -50 -140 -5 -16 -14 -39 -18 -50 -13
-31 -50 -135 -50 -140 0 -3 18 -5 39 -5 44 0 38 -10 107 185 15 44 31 82 35
85 6 4 268 5 359 1 23 -1 28 -12 69 -136 l45 -135 42 0 43 0 -26 68 c-14 37
-29 78 -33 92 -5 14 -23 63 -40 110 -18 47 -36 99 -42 115 -5 17 -12 37 -15
45 -3 8 -7 20 -9 25 -1 6 -23 66 -49 135 -25 69 -58 157 -71 195 -14 39 -29
79 -33 90 -6 16 -18 20 -54 21 -45 0 -46 0 -62 -45z m96 -136 c5 -11 17 -47
29 -80 11 -33 38 -109 59 -170 22 -60 38 -112 35 -114 -2 -3 -67 -4 -144 -4
-183 1 -182 1 -175 12 6 11 74 197 80 221 2 8 21 62 41 119 l38 104 14 -34 c8
-19 18 -43 23 -54z"/>
<path d="M7210 2549 l0 -449 39 0 40 0 -2 447 -2 448 -37 1 -38 2 0 -449z"/>
<path d="M7512 2986 c-4 -6 -7 -208 -7 -448 l0 -438 37 0 c29 0 38 4 39 18 0
9 1 178 1 375 0 198 3 355 7 350 4 -4 48 -78 97 -163 50 -85 146 -251 214
-367 l124 -213 43 0 43 0 -3 447 -2 448 -38 1 -37 2 2 -374 c2 -285 0 -370 -9
-361 -10 11 -108 175 -171 287 -14 25 -35 61 -47 80 -19 30 -43 72 -89 155 -6
11 -37 63 -68 116 -55 93 -58 96 -93 96 -20 0 -39 -5 -43 -11z"/>
<path d="M1256 2970 c-1 -3 -2 -153 -1 -335 1 -373 1 -375 78 -440 58 -50 102
-60 252 -59 140 1 198 15 243 57 l24 22 -4 -40 -3 -40 95 -5 c52 -3 107 -4
122 -2 l26 3 -1 422 -2 422 -115 1 c-63 0 -120 -1 -126 -3 -7 -3 -10 -83 -10
-255 l1 -251 -31 -55 c-17 -31 -47 -69 -67 -86 -66 -53 -173 -32 -211 42 -24
47 -29 110 -31 357 -2 132 -3 242 -4 245 -1 7 -232 7 -235 0z"/>
</g>
</svg>
